<?xml version="1.0" standalone="no"?><!DOCTYPE svg PUBLIC "-//W3C//DTD SVG 1.1//EN" "http://www.w3.org/Graphics/SVG/1.1/DTD/svg11.dtd"><svg t="1747147822545" class="icon" viewBox="0 0 1251 1024" version="1.1" xmlns="http://www.w3.org/2000/svg" p-id="5695" xmlns:xlink="http://www.w3.org/1999/xlink" width="244.3359375" height="200"><path d="M1080.888889 0a170.666667 170.666667 0 0 1 170.666667 170.666667v682.666666a170.666667 170.666667 0 0 1-170.666667 170.666667H170.666667a170.666667 170.666667 0 0 1-170.666667-170.666667V170.666667a170.666667 170.666667 0 0 1 170.666667-170.666667h910.222222z m1.592889 113.777778H170.666667a56.888889 56.888889 0 0 0-56.888889 55.296V853.333333a56.888889 56.888889 0 0 0 55.296 56.888889H1080.888889a56.888889 56.888889 0 0 0 56.888889-55.296V170.666667a56.888889 56.888889 0 0 0-55.296-56.888889zM341.333333 227.555556v227.555555h142.222223V227.555556h113.777777v568.888888h-113.777777v-227.555555H341.333333v227.555555H227.555556V227.555556h113.777777z m492.316445 0c76.060444 0 103.651556 7.964444 131.470222 22.755555 27.875556 14.904889 49.664 36.750222 64.512 64.568889 14.904889 27.818667 22.812444 55.409778 22.812444 131.413333v131.413334c0 76.003556-7.964444 103.594667-22.755555 131.413333a155.079111 155.079111 0 0 1-64.568889 64.512c-27.818667 14.904889-55.409778 22.812444-131.413333 22.812444H682.666667V227.555556h150.983111z m32.085333 113.777777H796.444444v341.333334h69.290667c25.372444 0 34.531556-2.616889 43.804445-7.623111a51.712 51.712 0 0 0 21.504-21.504c5.006222-9.272889 7.623111-18.432 7.623111-43.804445V414.264889c0-25.372444-2.616889-34.531556-7.623111-43.804445a51.712 51.712 0 0 0-21.504-21.504c-9.272889-5.006222-18.432-7.623111-43.804445-7.623111z" fill="#191F24" p-id="5696"></path></svg>