<?xml version="1.0" standalone="no"?><!DOCTYPE svg PUBLIC "-//W3C//DTD SVG 1.1//EN" "http://www.w3.org/Graphics/SVG/1.1/DTD/svg11.dtd"><svg t="1747044683496" class="icon" viewBox="0 0 1024 1024" version="1.1" xmlns="http://www.w3.org/2000/svg" p-id="3412" xmlns:xlink="http://www.w3.org/1999/xlink" width="200" height="200"><path d="M906.19904 243.70176c11.40224-2.49856 23.70048 6.2976 26.10176 17.69984l53.4016 266.10176c8.09984-1.1008 14.60224-2.2016 21.20192-5.00224l-53.2992-266.10176c-3.39968-22.59968-24.89856-36.80256-47.49824-35.0976-13.70112 13.50144-38.20032 19.90144-51.3024 23.90016a91.2384 91.2384 0 0 0 18.69824-16.39936L177.89952 366.19776c-0.30208 4.80256-0.9984 15.8976-6.4 23.59808l734.69952-146.09408zM395.10016 727.79776l-279.5008 55.5008c-6.5024 1.19808-12.8-0.79872-17.39776-4.3008 4.1984 9.90208 8.29952 19.70176 9.4976 26.30144 3.2 0.19968 8.00256 0.50176 11.29984-0.90112l383.60064-76.00128c-41.29792-5.89824-81.59744-3.69664-107.49952-0.59904zM27.10016 441.29792c-2.49856-11.40224 6.4-23.59808 17.69984-26.10176l84.50048-16.90112c-12.6976-2.40128-26.79808-6.5024-34.60096-10.30144 32.19968-1.1008 61.7984-13.59872 76.8-20.70016L39.79776 393.99936C16.9984 399.0016 1.1008 422.00064 5.89824 446.30016L38.4 613.2992c9.90208-4.10112 16.50176-8.4992 16.50176-8.4992s0 24.00256-11.60192 31.29856l26.7008 133.09952c2.60096 9.79968 8.4992 18.2016 14.40256 25.00096-2.29888-14.60224 0.39936-30.40256 4.39808-42.99776L27.10016 441.29792zM728.00256 663.70048c-2.0992 7.90016-7.3984 13.99808-13.9008 15.20128-8.20224 1.1008-17.60256-2.80064-26.99776-6.59968l-188.20096 36.1984c9.29792 5.49888 18.60096 12.49792 26.30144 17.80224l232.40192-46.19776-13.19936-20.1984-16.40448 3.79392zM1019.10016 582.4l-7.10144-39.19872c-8.00256-0.50176-16.1024-0.9984-24.00256-3.2l9.79968 47.40096c2.49856 11.49952-6.4 23.79776-17.80224 26.30144l-232.40192 46.30016c12.40064 7.30112 31.49824 11.6992 44.29824 14.19776l193.1008-39.10144c22.90688-5.00224 39.00928-28.20096 34.10944-52.70016zM453.38112 540.54912l-36.36224 7.8592-4.50048-20.8128-39.296 8.48896 4.50048 20.8128-121.97888 26.36288 7.7312 35.77344 41.49248-8.96512-18.4064 22.08256c13.16352 8.82176 27.21792 19.90144 42.17344 33.23904l26.86976-31.89248c-15.07328-10.55744-27.89376-19.24096-38.4768-26.0608l68.3264-14.76608 9.18528 42.51648c0.99328 4.59264 1.00352 8.42752 0.03584 11.50464-0.9728 3.072-2.60608 5.23776-4.88448 6.50752-2.28864 1.25952-6.6048 2.57536-12.95872 3.94752-11.3408 2.45248-23.69024 4.7104-37.05344 6.77888 5.44768 10.07616 11.20256 22.03136 17.26464 35.8656 35.28704-7.6288 56.4736-13.38368 63.5648-17.26976s12.12416-9.3184 15.11936-16.31232c2.99008-6.9888 3.22048-16.34816 0.68608-28.07808l-11.66336-53.95456 36.36224-7.85408-7.7312-35.77344z" fill="#E55A45" p-id="3413"></path><path d="M204.77952 628.65408l21.73952 100.57728 37.82656-8.17152-31.24224-144.5632a538.48064 538.48064 0 0 0 14.08512-32.81408l2.6624 12.3136 198.2208-42.83904-7.92064-36.64896-79.17056 17.11104-5.13024-23.75168 66.85696-14.44864-7.92576-36.65408-66.85696 14.44864-6.58944-30.49472-42.22464 9.12384 6.58944 30.49472-62.45888 13.49632 7.92576 36.65408 62.45376-13.49632 5.13536 23.75168-76.8256 16.59904 2.91328 13.4912-29.57312-17.55136c-16.39936 40.58112-33.01888 73.02656-49.86368 97.3312a966.47168 966.47168 0 0 1 21.48864 42.624 401.87904 401.87904 0 0 0 17.88416-26.58304zM189.55776 431.83104a351.63136 351.63136 0 0 1-39.63904 73.63584c8.4992 11.87328 17.06496 25.472 25.69728 40.79616 21.15072-32.80896 38.95296-64.99328 53.41184-96.5632l-39.47008-17.8688zM622.28992 645.53984c11.33568-16.67072 19.80928-36.15232 25.43104-58.43968 18.18112 21.65248 43.28448 30.11072 75.31008 25.39008s82.83648-14.60224 152.42752-29.63968c0.73728-10.79808 2.08384-24.90368 4.05504-42.31168-48.09216 11.82208-88.18688 20.84352-120.29952 27.06944l-8.58624-39.73632 97.94048-21.16608-7.79264-36.06528-97.94048 21.16608-6.84544-31.67232 113.18784-24.45824-7.79264-36.06528-276.52096 59.76064 7.79264 36.06528 121.40032-26.24 22.72256 105.12384c-25.96864 1.52064-46.70976-9.49248-62.23872-33.0496 0.98304-13.92128 1.12128-28.68224 0.40448-44.28288l-40.30464 3.80416c3.0464 47.22176-4.97152 85.888-24.0384 115.99872 9.4976 7.96672 20.06016 17.55648 31.68768 28.7488zM567.34208 448.09728l40.46336-8.74496-4.75136-21.9904 186.496-40.30464 4.75136 21.9904 40.46848-8.74496-12.48256-57.76896-105.86112 22.87616a1130.21952 1130.21952 0 0 0-19.89632-30.99648l-42.57792 20.2496 13.94688 21.23264-113.03936 24.42752 12.48256 57.77408z" fill="#E55A45" p-id="3414"></path></svg>